PathFileType	4	(X/Y/Z)	OpenSim_Sub01_EMGBaseline_Gyro.trc
DataRate	CameraRate	NumFrames	NumMarkers	Units	OrigDataRate	OrigDataStartFrame	OrigNumFrames
100	100	36	8	m	100	3803	7604
Frame#	Time	torso_imu_offset_imu	pelvis_imu_offset_imu	tibia_r_imu_offset_imu	femur_r_imu_offset_imu	tibia_l_imu_offset_imu	femur_l_imu_offset_imu	toes_r_imu_offset_imu	toes_l_imu_offset_imu
				X1	Y1	Z1	X2	Y2	Z2	X3	Y3	Z3	X4	Y4	Z4	X5	Y5	Z5	X6	Y6	Z6	X7	Y7	Z7	X8		Y8	Z8	

3803	38.02000000	0.54671074	-0.27277614	0.43317096	0.17376521	0.04667897	-0.45781748	0.68471279	-0.17189291	-0.54977747	0.17363338	-0.08493621	-0.96838056	-1.02711224	-0.41200706	-2.38232687	-1.33512261	0.38809267	-1.04559544	-0.08247910	-0.08830504	-0.11114423	0.01811755	2.95199206	-1.20898717
3804	38.03000000	0.46847971	-0.26916566	0.42611658	0.18657038	0.05541833	-0.39935715	0.47701541	-0.17681604	-0.57246968	0.09672396	-0.07319392	-0.97212298	-0.86019340	-0.34583390	-2.69169765	-1.50824650	0.35802967	-0.95735801	-0.09383757	-0.10408608	-0.09587027	0.08747246	3.32737131	-1.24465585
3805	38.04000000	0.35696335	-0.24344190	0.38575875	0.19018950	0.05864507	-0.32903909	0.12928845	-0.19801157	-0.60281313	0.02168932	-0.05416577	-0.94011029	-0.57010376	-0.26021887	-2.98930254	-1.59705053	0.30452807	-0.87856708	-0.08074499	-0.11316032	-0.09341330	0.15025690	3.69388562	-1.22736887
3806	38.05000000	0.25303422	-0.19983468	0.30947854	0.18230504	0.05655770	-0.26121727	-0.26349581	-0.24474583	-0.62487491	-0.01892687	-0.02962351	-0.88693220	-0.30868043	-0.23202497	-3.25141711	-1.63115738	0.24452383	-0.80527296	-0.03591028	-0.10594105	-0.11238090	0.20583149	4.01049939	-1.16573001
3807	38.06000000	0.17674840	-0.15146860	0.21543245	0.16266508	0.05394352	-0.20336459	-0.59566539	-0.30342069	-0.63380331	-0.01220789	-0.00697313	-0.83064396	-0.14730732	-0.26860719	-3.47761454	-1.62302676	0.18608700	-0.72971796	0.02741944	-0.08444386	-0.14771130	0.25888242	4.26437868	-1.07320196
3808	38.07000000	0.13213475	-0.11831044	0.13776071	0.13260953	0.05911987	-0.15765666	-0.75334642	-0.34284583	-0.63327769	0.03964952	0.00204574	-0.79196294	-0.09542023	-0.32382469	-3.68539776	-1.57190805	0.13046138	-0.64121589	0.08019353	-0.05961422	-0.18382273	0.31819054	4.46439612	-0.96698752
3809	38.08000000	0.11926346	-0.11380355	0.09868274	0.09581742	0.07732959	-0.12583943	-0.66860437	-0.34322485	-0.62811007	0.12801631	-0.00955841	-0.78416185	-0.14087857	-0.36556389	-3.88645858	-1.47906326	0.07709644	-0.53289758	0.10203631	-0.04046141	-0.20845502	0.38605552	4.61576150	-0.86410345
3810	38.09000000	0.12766688	-0.13148438	0.08377440	0.06279671	0.10441000	-0.10878707	-0.41063676	-0.31996226	-0.62582607	0.22630536	-0.03433711	-0.79818867	-0.21216422	-0.40748091	-4.07385098	-1.35274437	0.02063174	-0.40945964	0.09955694	-0.02955895	-0.22002187	0.44520557	4.71114177	-0.78072778
3811	38.10000000	0.14490852	-0.16102788	0.07293237	0.04448829	0.13445972	-0.10696969	-0.07413482	-0.29416291	-0.63376831	0.30623195	-0.06225300	-0.82097246	-0.23077644	-0.47038155	-4.23796206	-1.20165916	-0.04484961	-0.27798287	0.08416130	-0.02815817	-0.21904932	0.47682779	4.74168966	-0.73217286
3812	38.11000000	0.15824442	-0.18940080	0.06244720	0.03941990	0.16158073	-0.11722328	0.24411324	-0.27484526	-0.64903430	0.36378868	-0.08447749	-0.84106694	-0.17799715	-0.55543322	-4.38083471	-1.02199805	-0.12028479	-0.14922638	0.06437671	-0.03553053	-0.20814195	0.49319206	4.71059913	-0.72311861
3813	38.12000000	0.15469845	-0.20148941	0.06122456	0.03656521	0.17987877	-0.13358623	0.44573115	-0.26172162	-0.66083831	0.41365148	-0.09311629	-0.84828134	-0.08114500	-0.64868573	-4.51347929	-0.80032538	-0.20277609	-0.03677569	0.04651245	-0.04942332	-0.19150391	0.53048653	4.63033575	-0.75005897
3814	38.13000000	0.12726775	-0.18792851	0.07199147	0.02677359	0.18503586	-0.14997877	0.46701963	-0.25148966	-0.66279989	0.46369525	-0.08522947	-0.83891963	0.01013401	-0.73596109	-4.64027364	-0.53603742	-0.28744782	0.05255644	0.03404665	-0.06744638	-0.17274450	0.61318163	4.51650113	-0.80783100
3815	38.14000000	0.08671638	-0.15659306	0.07815112	0.00719822	0.17741757	-0.16018380	0.34744066	-0.23260084	-0.66223108	0.50015818	-0.07252732	-0.82848830	-0.01663118	-0.80355983	-4.74520213	-0.26739513	-0.36383985	0.13229804	0.02221431	-0.08691776	-0.15358317	0.72910134	4.39330664	-0.88697406
3816	38.15000000	0.04646268	-0.11830120	0.06107212	-0.02338678	0.15842681	-0.15846663	0.14603664	-0.19345351	-0.66832888	0.50634649	-0.06863853	-0.83501730	-0.27227617	-0.83871164	-4.80915852	-0.03764854	-0.42097236	0.21942119	0.00507727	-0.10529841	-0.13537811	0.85831435	4.28551118	-0.97735260
3817	38.16000000	0.01049012	-0.08021531	0.02513652	-0.05939223	0.13203178	-0.14669041	-0.07055641	-0.14446453	-0.68061599	0.48155200	-0.07536829	-0.86117194	-0.66936429	-0.84122574	-4.82320889	0.14281711	-0.45553846	0.32616049	-0.01805266	-0.12299484	-0.11930957	0.96622715	4.20224776	-1.07062158
3818	38.17000000	-0.02448012	-0.04668166	-0.00756350	-0.08998563	0.10417459	-0.13256532	-0.22987760	-0.11299262	-0.69116931	0.43737041	-0.08542101	-0.89778919	-0.96788989	-0.82059606	-4.78625211	0.28891439	-0.47013631	0.46109878	-0.04382215	-0.14268001	-0.10642072	1.00696997	4.14061726	-1.15982112
3819	38.18000000	-0.06100395	-0.01935463	-0.02204330	-0.10806356	0.07973411	-0.12154869	-0.28682408	-0.11622000	-0.69390448	0.38328582	-0.09255922	-0.93453885	-1.00532151	-0.78788548	-4.70020552	0.41409787	-0.46546185	0.62639721	-0.06869597	-0.16573664	-0.09757196	0.94867004	4.09303131	-1.24708199
3820	38.19000000	-0.09893410	0.00789475	-0.02579145	-0.11800409	0.06027893	-0.11195676	-0.27803045	-0.13979520	-0.68876999	0.32156737	-0.09438515	-0.95852668	-0.86099805	-0.75807868	-4.57535689	0.52555607	-0.43610734	0.80541431	-0.08890732	-0.18954024	-0.09309103	0.80190747	4.03888757	-1.36144120
3821	38.20000000	-0.13733145	0.04177284	-0.02988312	-0.12623299	0.04611136	-0.10092801	-0.25366687	-0.16406901	-0.67734712	0.25329176	-0.08975440	-0.95738161	-0.65639062	-0.74517406	-4.42212135	0.62912575	-0.37620609	0.97724012	-0.10109015	-0.21108959	-0.09315504	0.58729092	3.95539377	-1.53366213
3822	38.21000000	-0.17088616	0.07609297	-0.03688910	-0.13805367	0.02774469	-0.08773330	-0.24031561	-0.17735791	-0.66895892	0.18165267	-0.08565452	-0.93365420	-0.47427835	-0.73756330	-4.22966267	0.72775177	-0.28991000	1.10911099	-0.10851616	-0.23283165	-0.09716090	0.35804312	3.82299237	-1.74590599
3823	38.22000000	-0.19092480	0.09474741	-0.04283571	-0.15790279	-0.01183579	-0.07328481	-0.24639790	-0.17411388	-0.67888302	0.11147360	-0.09532748	-0.90137852	-0.36764478	-0.70393575	-3.97079636	0.82214992	-0.18908656	1.15915190	-0.11956439	-0.26140541	-0.10390475	0.19246141	3.62461847	-1.94292646
3824	38.23000000	-0.19000609	0.08661983	-0.04642940	-0.18664502	-0.07967908	-0.05833999	-0.27580857	-0.15357814	-0.71576299	0.04784450	-0.12482041	-0.87066425	-0.37490539	-0.62542093	-3.63251200	0.90911282	-0.09022606	1.10337478	-0.13957039	-0.30086405	-0.11201441	0.12730471	3.34670934	-2.07721086
3825	38.24000000	-0.16460701	0.05618393	-0.05484076	-0.21459720	-0.15264652	-0.04307102	-0.32038078	-0.12875386	-0.76807489	-0.00347745	-0.15832351	-0.83908221	-0.49346509	-0.52161925	-3.24516591	0.97394617	-0.02296529	0.97163756	-0.16443587	-0.34725680	-0.11966337	0.07398726	2.98591811	-2.12708560
3826	38.25000000	-0.11216433	0.01075521	-0.07570235	-0.23094200	-0.20308833	-0.02760521	-0.36952821	-0.11392550	-0.82171401	-0.03699432	-0.17694588	-0.80197867	-0.70908069	-0.41846633	-2.84386248	1.00178927	-0.01637648	0.80307383	-0.18868319	-0.39594871	-0.12480696	-0.06699702	2.54277688	-2.07759596
3827	38.26000000	-0.03363591	-0.04295761	-0.10014380	-0.23707109	-0.21936710	-0.01301770	-0.40982968	-0.10447858	-0.87975210	-0.05293249	-0.17616045	-0.75610158	-0.94667106	-0.33026405	-2.41478051	1.00706891	-0.05471557	0.62664815	-0.21229360	-0.45420985	-0.12339314	-0.21179759	2.04759788	-1.94283996
3828	38.27000000	0.06730109	-0.09870967	-0.10659932	-0.24377136	-0.20217450	-0.00111316	-0.42568649	-0.08125854	-0.95847758	-0.05592291	-0.16249573	-0.69927894	-1.08434197	-0.26235518	-1.90645648	1.02673694	-0.08775514	0.46348782	-0.23944920	-0.53847050	-0.10982741	-0.13551593	1.55358869	-1.75927255
3829	38.28000000	0.17532504	-0.14598785	-0.08453388	-0.25776286	-0.15608930	0.00641784	-0.40782859	-0.03581778	-1.06678638	-0.04797997	-0.14051190	-0.63075035	-1.02560285	-0.21528700	-1.29391276	1.07104205	-0.08594947	0.32251761	-0.27257751	-0.65973308	-0.08231798	0.25730078	1.07559841	-1.55340216
3830	38.29000000	0.24072150	-0.16156081	-0.05715984	-0.27296312	-0.09629807	0.00827959	-0.36595739	0.00736498	-1.19059807	-0.02300657	-0.10807545	-0.55386737	-0.75302641	-0.17604211	-0.63374969	1.06916484	-0.08384281	0.17700228	-0.30857134	-0.81217144	-0.05049027	0.66668661	0.51274682	-1.32047310
3831	38.30000000	0.21179772	-0.12200748	-0.05219154	-0.28167191	-0.03953818	0.00351267	-0.31358271	0.01957139	-1.31202249	0.02561405	-0.06223145	-0.47284733	-0.27461052	-0.13020140	0.00577045	0.94103372	-0.12515507	-0.00374315	-0.34333040	-0.98687834	-0.02580685	0.73963657	-0.24310187	-1.04838130
3832	38.31000000	0.10240463	-0.03625172	-0.07134690	-0.28739951	0.00359445	-0.00490211	-0.26871591	-0.00026640	-1.41972661	0.08983429	-0.00625262	-0.39348633	0.23993308	-0.07989794	0.60756723	0.69240521	-0.21360207	-0.21085335	-0.37320549	-1.17539944	-0.01563441	0.42341898	-1.08849149	-0.70155870
3833	38.32000000	-0.02316238	0.06188787	-0.09633576	-0.30228307	0.02723554	-0.01095242	-0.25282680	-0.03193480	-1.50742993	0.15032063	0.05179483	-0.32279341	0.49651502	-0.04000933	1.19391489	0.39509675	-0.32211165	-0.40501607	-0.39489656	-1.36963110	-0.02418481	-0.10355061	-1.75716850	-0.22642512
3834	38.33000000	-0.11417524	0.14393063	-0.11365878	-0.33460061	0.03080430	-0.01073485	-0.27829251	-0.05992811	-1.57529593	0.19113830	0.10435898	-0.26458799	0.34381438	-0.02923074	1.72811278	0.10971186	-0.43246579	-0.54478278	-0.40757164	-1.56413554	-0.05321308	-0.66191279	-2.09349542	0.36403733
3835	38.34000000	-0.16407590	0.19915991	-0.12558157	-0.38050389	0.02905795	-0.00684429	-0.33020772	-0.08435646	-1.64224970	0.20731428	0.14578263	-0.21311899	0.06424219	-0.07662677	1.99521276	-0.14151654	-0.55510909	-0.58468427	-0.41770578	-1.76136970	-0.09741505	-1.08717126	-2.28296511	0.85768518
3836	38.35000000	-0.17516843	0.22113789	-0.13684207	-0.43289861	0.03783428	-0.00313247	-0.38944237	-0.10820614	-1.72895161	0.19627350	0.17160793	-0.16076559	-0.00553231	-0.20706035	1.77379112	-0.34340645	-0.70207648	-0.48199488	-0.43238159	-1.96492569	-0.15101764	-1.22963873	-2.55748466	1.02384871
3837	38.36000000	-0.16016816	0.21830811	-0.14555949	-0.46966637	0.04670865	-0.00428049	-0.44912626	-0.13429917	-1.83012419	0.16099717	0.19008157	-0.09840558	0.08313759	-0.35383808	1.23863732	-0.48012914	-0.82990618	-0.24616290	-0.44755805	-2.17354074	-0.22075970	-1.12009610	-2.89974458	0.90561491
3838	38.37000000	-0.13980114	0.21056570	-0.14476079	-0.45714019	0.02505009	-0.01560735	-0.51182773	-0.16533017	-1.92053184	0.10874318	0.21922741	-0.01576306	-0.01968419	-0.37983170	0.86941390	-0.53538517	-0.85244191	0.07318474	-0.45063621	-2.38222303	-0.32300283	-0.92821815	-3.10063165	0.75673980
